<svg width="88" height="15" viewBox="0 0 88 15" fill="none" xmlns="http://www.w3.org/2000/svg">
<path d="M11.3254 13.8269C11.3254 12.2806 11.3254 10.8179 11.3254 9.31343C11.994 9.31343 12.5791 9.31343 13.2478 9.31343C13.2478 10.8179 13.2478 12.2806 13.2478 13.7851C14.2925 13.7851 15.2119 13.7851 16.1313 13.7851C16.1313 9.81493 16.1313 5.92836 16.1313 2C15.1701 2 14.2507 2 13.2478 2C13.2478 3.50448 13.2478 4.96716 13.2478 6.47164C12.5791 6.47164 11.994 6.47164 11.2836 6.47164C11.2836 4.96716 11.2836 3.46269 11.2836 2C10.2388 2 9.3194 2 8.39999 2C8.39999 5.97015 8.39999 9.85672 8.39999 13.8269C9.36119 13.8269 10.2806 13.8269 11.3254 13.8269Z" fill="white"/>
<path d="M24.4478 6.51343C23.3194 6.51343 22.2746 6.51343 21.1881 6.51343C21.1881 5.88657 21.1881 5.30149 21.1881 4.67463C22.4 4.67463 23.5701 4.67463 24.7821 4.67463C24.7821 3.75522 24.7821 2.87761 24.7821 2C22.5672 2 20.394 2 18.2209 2C18.2209 5.97015 18.2209 9.85672 18.2209 13.7433C20.4358 13.7433 22.6089 13.7433 24.7821 13.7433C24.7821 12.8239 24.7821 11.9881 24.7821 11.0687C23.5283 11.0687 22.4 11.0687 21.2298 11.0687C21.2298 10.4418 21.2298 9.85672 21.2298 9.22985C22.3164 9.22985 23.403 9.22985 24.4895 9.22985C24.4478 8.31045 24.4478 7.47463 24.4478 6.51343Z" fill="white"/>
<path d="M41.0806 2C41.0806 6.01194 41.0806 9.89851 41.0806 13.7851C43.2955 13.7851 45.4687 13.7851 47.6418 13.7851C47.6418 12.9075 47.6418 12.0716 47.6418 11.1104C46.3881 11.1104 45.2179 11.1104 44.0478 11.1104C44.0478 10.4418 44.0478 9.89851 44.0478 9.22985C45.1761 9.22985 46.2209 9.22985 47.2657 9.22985C47.2657 8.26866 47.2657 7.43284 47.2657 6.51343C46.1373 6.51343 45.0925 6.51343 44.0478 6.51343C44.0478 5.88657 44.0478 5.30149 44.0478 4.67463C45.2597 4.67463 46.4299 4.67463 47.6 4.67463C47.6 3.75522 47.6 2.87761 47.6 2C45.4269 2 43.2537 2 41.0806 2Z" fill="white"/>
<path d="M52.4895 11.1104C52.4895 8.0179 52.4895 5.05073 52.4895 2.04178C51.4448 2.04178 50.5254 2.04178 49.5642 2.04178C49.5642 6.01193 49.5642 9.8985 49.5642 13.7851C51.7791 13.7851 53.9522 13.7851 56.1254 13.7851C56.1254 12.8657 56.1254 12.0298 56.1254 11.1104C54.9134 11.1104 53.7851 11.1104 52.4895 11.1104Z" fill="white"/>
<path d="M1.8806 13.7851C2.92537 13.7851 3.84478 13.7851 4.84776 13.7851C4.84776 10.7343 4.84776 7.76716 4.84776 4.67463C5.51642 4.67463 6.10149 4.67463 6.68657 4.67463C6.68657 3.71343 6.68657 2.87761 6.68657 2C4.42985 2 2.21493 2 0 2C0 2.87761 0 3.75522 0 4.71642C0.626866 4.71642 1.21194 4.71642 1.8806 4.71642C1.8806 7.80896 1.8806 10.7761 1.8806 13.7851Z" fill="white"/>
<path d="M60.7224 11.1104C60.7224 8.01791 60.7224 5.00896 60.7224 2C59.6776 2 58.7582 2 57.8388 2C57.8388 5.97015 57.8388 9.85672 57.8388 13.7433C60.0537 13.7433 62.2269 13.7433 64.4 13.7433C64.4 12.8239 64.4 11.9881 64.4 11.0687C63.1881 11.1104 62.0597 11.1104 60.7224 11.1104Z" fill="white"/>
<path d="M70 12.2388C70 11.2358 69.2896 10.5254 68.3284 10.4836C67.3254 10.4418 66.5731 11.2358 66.6149 12.2388C66.6149 13.2418 67.3672 13.9941 68.3702 13.9941C69.2896 13.9523 70 13.2418 70 12.2388Z" fill="white"/>
<path d="M11.3254 13.8269C10.2388 13.8269 9.36119 13.8269 8.39999 13.8269C8.39999 9.89851 8.39999 5.97015 8.39999 2C9.36119 2 10.2806 2 11.2836 2C11.2836 3.46269 11.2836 4.96716 11.2836 6.47164C11.994 6.47164 12.5791 6.47164 13.2478 6.47164C13.2478 4.96716 13.2478 3.50448 13.2478 2C14.2507 2 15.1701 2 16.1313 2C16.1313 5.92836 16.1313 9.81493 16.1313 13.7851C15.2119 13.7851 14.2925 13.7851 13.2478 13.7851C13.2478 12.2806 13.2478 10.8179 13.2478 9.31343C12.5373 9.31343 11.994 9.31343 11.3254 9.31343C11.3254 10.7761 11.3254 12.2806 11.3254 13.8269Z" fill="#FF1818"/>
<path d="M24.4478 6.51343C24.4478 7.47463 24.4478 8.31045 24.4478 9.22985C23.3612 9.22985 22.3164 9.22985 21.188 9.22985C21.188 9.85672 21.188 10.4418 21.188 11.0687C22.3582 11.0687 23.5283 11.0687 24.7403 11.0687C24.7403 11.9881 24.7403 12.8657 24.7403 13.7433C22.5672 13.7433 20.394 13.7433 18.1791 13.7433C18.1791 9.85672 18.1791 5.92836 18.1791 2C20.3522 2 22.5254 2 24.7403 2C24.7403 2.87761 24.7403 3.71343 24.7403 4.67463C23.5283 4.67463 22.4 4.67463 21.1463 4.67463C21.1463 5.30149 21.1463 5.84478 21.1463 6.51343C22.2328 6.51343 23.2776 6.51343 24.4478 6.51343Z" fill="#FF1818"/>
<path d="M41.0806 2C43.2537 2 45.4269 2 47.6418 2C47.6418 2.87761 47.6418 3.71343 47.6418 4.67463C46.4716 4.67463 45.3015 4.67463 44.0896 4.67463C44.0896 5.30149 44.0896 5.84478 44.0896 6.51343C45.1343 6.51343 46.1791 6.51343 47.3075 6.51343C47.3075 7.47463 47.3075 8.31045 47.3075 9.22985C46.2627 9.22985 45.2179 9.22985 44.0896 9.22985C44.0896 9.85672 44.0896 10.4418 44.0896 11.1104C45.2597 11.1104 46.4299 11.1104 47.6836 11.1104C47.6836 12.0716 47.6836 12.9075 47.6836 13.7851C45.5105 13.7851 43.3373 13.7851 41.1224 13.7851C41.0806 9.89851 41.0806 6.01194 41.0806 2Z" fill="#FF1818"/>
<path d="M52.4895 11.1104C53.7851 11.1104 54.9134 11.1104 56.1254 11.1104C56.1254 12.0298 56.1254 12.8657 56.1254 13.7851C53.9522 13.7851 51.7791 13.7851 49.5642 13.7851C49.5642 9.8985 49.5642 5.97014 49.5642 2.04178C50.5254 2.04178 51.4448 2.04178 52.4895 2.04178C52.4895 5.00894 52.4895 8.0179 52.4895 11.1104Z" fill="#FF1818"/>
<path d="M1.8806 13.7851C1.8806 10.7761 1.8806 7.80896 1.8806 4.71642C1.21194 4.71642 0.626866 4.71642 0 4.71642C0 3.75522 0 2.9194 0 2C2.21493 2 4.42985 2 6.68657 2C6.68657 2.83582 6.68657 3.71343 6.68657 4.67463C6.10149 4.67463 5.51642 4.67463 4.84776 4.67463C4.84776 7.76716 4.84776 10.7343 4.84776 13.7851C3.84478 13.7851 2.92537 13.7851 1.8806 13.7851Z" fill="#FF1818"/>
<path d="M60.7224 11.1104C62.0179 11.1104 63.1881 11.1104 64.4 11.1104C64.4 12.0298 64.4 12.8657 64.4 13.7851C62.2269 13.7851 60.0537 13.7851 57.8388 13.7851C57.8388 9.8985 57.8388 5.97014 57.8388 2.04178C58.7582 2.04178 59.6776 2.04178 60.7224 2.04178C60.7224 5.05073 60.7224 8.0179 60.7224 11.1104Z" fill="#FF1818"/>
<path d="M70 12.2388C70 13.2418 69.2896 13.9523 68.3284 13.9941C67.3254 14.0358 66.5731 13.2836 66.5731 12.2388C66.5731 11.2358 67.3254 10.4418 68.2866 10.4836C69.2896 10.5254 70 11.2358 70 12.2388Z" fill="#FF1818"/>
<path d="M39.3672 10.1493C39.2836 9.14629 38.8239 8.43584 38.0716 7.85076C38.197 7.72539 38.2806 7.64181 38.3642 7.55823C39.3254 6.51345 39.3254 5.30151 38.991 4.04778C38.6567 2.87763 37.7791 2.20897 36.609 2.12539C34.9791 2.04181 33.3075 2.0836 31.6358 2.0836C31.6358 5.92837 31.6358 9.85673 31.6358 13.7851C33.3075 13.7851 34.8955 13.9105 36.4836 13.7433C38.5731 13.5761 39.4925 12.2806 39.3672 10.1493ZM35.2299 11.2776H34.394V9.18808H35.2299C35.8149 9.18808 36.2746 9.64778 36.2746 10.2329C36.2746 10.8179 35.8149 11.2776 35.2299 11.2776ZM35.2299 6.7642H34.394V4.67464H35.2299C35.8149 4.67464 36.2746 5.13434 36.2746 5.71942C36.2746 6.30449 35.8149 6.7642 35.2299 6.7642Z" fill="#FF1818"/>
</svg>
